<svg width="1280" height="720" xmlns="http://www.w3.org/2000/svg" xmlns:xlink="http://www.w3.org/1999/xlink" overflow="hidden"><defs><clipPath id="clip0"><rect x="0" y="0" width="1280" height="720"/></clipPath></defs><g clip-path="url(#clip0)"><rect x="0" y="0" width="1280" height="720" fill="#FFFFFF"/><rect x="0.500053" y="0.500053" width="1280" height="720" stroke="#042433" stroke-width="0.666667" stroke-miterlimit="8" fill="#E8E8E8"/><rect x="20" y="60" width="978" height="424" stroke="#042433" stroke-width="2" stroke-miterlimit="8" fill="#B4E5A2"/><rect x="32.5001" y="124.5" width="305" height="319" stroke="#042433" stroke-width="0.666667" stroke-miterlimit="8" fill="#F2CFEE"/><rect x="357.5" y="124.5" width="305" height="319" stroke="#042433" stroke-width="0.666667" stroke-miterlimit="8" fill="#F2CFEE"/><rect x="62.5001" y="165.5" width="104" height="55" stroke="#042433" stroke-width="0.666667" stroke-miterlimit="8" fill="#DFE5A9"/><rect x="197.5" y="165.5" width="104" height="55" stroke="#042433" stroke-width="0.666667" stroke-miterlimit="8" fill="#DFE5A9"/><rect x="52.5001" y="252.5" width="264" height="174" stroke="#042433" stroke-width="0.666667" stroke-miterlimit="8" fill="#FFFFFF"/><rect x="63.5001" y="341.5" width="114" height="73" stroke="#042433" stroke-width="0.666667" stroke-miterlimit="8" fill="#7F7F7F"/><rect x="187.5" y="342.5" width="114" height="72" stroke="#042433" stroke-width="0.666667" stroke-miterlimit="8" fill="#7F7F7F"/><rect x="187.5" y="264.5" width="113" height="45" stroke="#042433" stroke-width="0.666667" stroke-miterlimit="8" fill="#E86828"/><rect x="20.5001" y="612.5" width="978" height="89" stroke="#042433" stroke-width="0.666667" stroke-miterlimit="8" fill="#A5A5A5"/><rect x="357.5" y="635.5" width="305" height="49" stroke="#042433" stroke-width="0.666667" stroke-miterlimit="8" fill="#747474"/><rect x="682.5" y="635.5" width="305" height="49" stroke="#042433" stroke-width="0.666667" stroke-miterlimit="8" fill="#747474"/><path d="M415 573.98 415 633.161 413 633.161 413 573.98ZM408.47 581.476 414 571.995 419.53 581.476C419.809 581.953 419.648 582.565 419.171 582.844 418.694 583.122 418.081 582.961 417.803 582.484L413.136 574.484 414.864 574.484 410.197 582.484C409.919 582.961 409.307 583.122 408.829 582.844 408.352 582.565 408.191 581.953 408.47 581.476ZM419.531 625.664 414 635.145 408.47 625.664C408.191 625.187 408.353 624.575 408.83 624.297 409.307 624.018 409.919 624.18 410.197 624.657L414.864 632.657 413.136 632.657 417.803 624.657C418.081 624.18 418.694 624.018 419.171 624.297 419.648 624.575 419.809 625.187 419.531 625.664Z"/><rect x="80.5001" y="370.5" width="80" height="36" stroke="#042433" stroke-width="0.666667" stroke-miterlimit="8" fill="#F2AA84"/><rect x="204.5" y="370.5" width="80" height="36" stroke="#042433" stroke-width="0.666667" stroke-miterlimit="8" fill="#F2AA84"/><path d="M297.532 110.745C339.447 157.417 340.665 226.671 300.252 265.429 296.836 268.706 293.175 271.702 289.298 274.396" stroke="#FFFF00" stroke-width="2" stroke-miterlimit="8" fill="none" fill-rule="evenodd"/><path d="M276 248C276 239.163 293.237 232 314.5 232 335.763 232 353 239.163 353 248 353 256.837 335.763 264 314.5 264 293.237 264 276 256.837 276 248Z" stroke="#042433" stroke-width="2" stroke-miterlimit="8" fill="#BFBFBF" fill-rule="evenodd"/><path d="M279 252C279 243.163 296.237 236 317.5 236 338.763 236 356 243.163 356 252 356 260.837 338.763 268 317.5 268 296.237 268 279 260.837 279 252Z" stroke="#042433" stroke-width="2" stroke-miterlimit="8" fill="#AEAEAE" fill-rule="evenodd"/><path d="M282 256C282 247.163 299.237 240 320.5 240 341.763 240 359 247.163 359 256 359 264.837 341.763 272 320.5 272 299.237 272 282 264.837 282 256Z" stroke="#042433" stroke-width="2" stroke-miterlimit="8" fill="#FF0000" fill-rule="evenodd"/><text fill="#FFFFFF" font-family="Aptos,Aptos_MSFontService,sans-serif" font-weight="400" font-size="12" transform="translate(307.987 252)">Seq_</text><text fill="#FFFFFF" font-family="Aptos,Aptos_MSFontService,sans-serif" font-weight="400" font-size="12" transform="translate(309.066 266)">item</text><path d="M294.182 278.424 283.741 280.351 287.558 270.443Z" stroke="#FFFF00" stroke-width="2" stroke-miterlimit="8" fill="#FFFF00" fill-rule="evenodd"/><rect x="241" y="336" width="5" height="5" stroke="#000000" stroke-width="2" stroke-miterlimit="8"/><path d="M241 312C241 310.343 242.119 309 243.5 309 244.881 309 246 310.343 246 312 246 313.657 244.881 315 243.5 315 242.119 315 241 313.657 241 312Z" stroke="#000000" stroke-width="2" stroke-miterlimit="8" fill-rule="evenodd"/><path d="M245.167 316.5 245.167 330.236 243.833 330.236 243.833 316.5ZM248.5 328.902 244.5 336.902 240.5 328.902Z"/><path d="M218 223C218 221.343 219.343 220 221 220 222.657 220 224 221.343 224 223 224 224.657 222.657 226 221 226 219.343 226 218 224.657 218 223Z" stroke="#000000" stroke-width="2" stroke-miterlimit="8" fill-rule="evenodd"/><path d="M141 223C141 221.343 142.119 220 143.5 220 144.881 220 146 221.343 146 223 146 224.657 144.881 226 143.5 226 142.119 226 141 224.657 141 223Z" stroke="#000000" stroke-width="2" stroke-miterlimit="8" fill-rule="evenodd"/><path d="M157.5 254.5 157.5 339.033" stroke="#000000" stroke-width="1.33333" stroke-miterlimit="8" fill="none" fill-rule="evenodd"/><path d="M154 252.5 157.5 249 161 252.5 157.5 256Z" stroke="#000000" stroke-width="2" stroke-miterlimit="8" fill-rule="evenodd"/><path d="M144.5 248.5 221.75 248.5" stroke="#000000" stroke-width="1.33333" stroke-miterlimit="8" fill="none" fill-rule="evenodd"/><path d="M0.666667-3.2036e-06 0.66674 15.181-0.666594 15.181-0.666667 3.2036e-06ZM4.00007 13.8476 0.000104987 21.8477-3.99993 13.8477Z" transform="matrix(1 0 0 -1 144.5 248.348)"/><path d="M0.666667-3.2036e-06 0.66674 15.181-0.666594 15.181-0.666667 3.2036e-06ZM4.00007 13.8476 0.000104987 21.8477-3.99993 13.8477Z" transform="matrix(1 0 0 -1 221.5 248.348)"/><path d="M154 341.5 157.5 338 161 341.5 157.5 345Z" stroke="#000000" stroke-width="2" stroke-miterlimit="8" fill-rule="evenodd"/><text font-family="Aptos,Aptos_MSFontService,sans-serif" font-weight="400" font-size="18.6667" transform="translate(61.0529 36)">Top module</text><text font-family="Aptos,Aptos_MSFontService,sans-serif" font-weight="400" font-size="18.6667" transform="translate(42.2062 95)">uvm_test</text><text font-family="Aptos,Aptos_MSFontService,sans-serif" font-weight="400" font-size="16" transform="translate(49.3362 147)">wrapper_env</text><text font-family="Aptos,Aptos_MSFontService,sans-serif" font-weight="400" font-size="16" transform="translate(371.408 144)">slave_env</text><text font-family="Aptos,Aptos_MSFontService,sans-serif" font-weight="400" font-size="13.3333" transform="translate(65.6275 192)">uvm_scoreboard</text><text font-family="Aptos,Aptos_MSFontService,sans-serif" font-weight="400" font-size="13.3333" transform="translate(220.873 188)">Coverage</text><text font-family="Aptos,Aptos_MSFontService,sans-serif" font-weight="400" font-size="13.3333" transform="translate(220.873 204)">Collector</text><text font-family="Aptos,Aptos_MSFontService,sans-serif" font-weight="400" font-size="13.3333" transform="translate(199.554 292)">uvm_sequencer</text><text font-family="Aptos,Aptos_MSFontService,sans-serif" font-weight="400" font-size="13.3333" transform="translate(65.5336 283)">uvm_agent</text><text font-family="Aptos,Aptos_MSFontService,sans-serif" font-weight="400" font-size="13.3333" transform="translate(65.5336 299)">(active)</text><text fill="#FFFFFF" font-family="Aptos,Aptos_MSFontService,sans-serif" font-weight="400" font-size="13.3333" transform="translate(80.5954 358)">uvm_monitor</text><text fill="#FFFFFF" font-family="Aptos,Aptos_MSFontService,sans-serif" font-weight="400" font-size="13.3333" transform="translate(212.653 358)">uvm_driver</text><text font-family="Aptos,Aptos_MSFontService,sans-serif" font-weight="400" font-size="13.3333" transform="translate(103.029 384)">Virtual</text><text font-family="Aptos,Aptos_MSFontService,sans-serif" font-weight="400" font-size="13.3333" transform="translate(96.109 400)">Interface</text><text font-family="Aptos,Aptos_MSFontService,sans-serif" font-weight="400" font-size="13.3333" transform="translate(225.09 384)">Virtual</text><text font-family="Aptos,Aptos_MSFontService,sans-serif" font-weight="400" font-size="13.3333" transform="translate(218.17 400)">Interface</text><rect x="357.5" y="513.5" width="157" height="58" stroke="#042433" stroke-width="0.666667" stroke-miterlimit="8" fill="#F2AA84"/><text font-family="Aptos,Aptos_MSFontService,sans-serif" font-weight="400" font-size="16" transform="translate(381.947 547)">Slave_Interface</text><text font-family="Aptos,Aptos_MSFontService,sans-serif" font-weight="400" font-size="18.6667" transform="translate(101.854 662)">SPI_wrapper</text><text fill="#FFFFFF" font-family="Aptos,Aptos_MSFontService,sans-serif" font-weight="400" font-size="18.6667" transform="translate(805.76 662)">SPI_ram</text><text fill="#FFFFFF" font-family="Aptos,Aptos_MSFontService,sans-serif" font-weight="400" font-size="18.6667" transform="translate(469.553 662)">SPI_slave</text><path d="M209 383.5C209 382.119 210.119 381 211.5 381 212.881 381 214 382.119 214 383.5 214 384.881 212.881 386 211.5 386 210.119 386 209 384.881 209 383.5Z" stroke="#000000" stroke-width="2" stroke-miterlimit="8" fill-rule="evenodd"/><path d="M84 384C84 382.343 85.3431 381 87 381 88.6569 381 90 382.343 90 384 90 385.657 88.6569 387 87 387 85.3431 387 84 385.657 84 384Z" stroke="#000000" stroke-width="2" stroke-miterlimit="8" fill-rule="evenodd"/><path d="M87.1937 514.826 87 387" stroke="#000000" stroke-width="2" stroke-linejoin="round" stroke-miterlimit="10" stroke-dasharray="8 6" fill="none" fill-rule="evenodd"/><path d="M0 0 1.36504 89.0609" stroke="#000000" stroke-width="2" stroke-linejoin="round" stroke-miterlimit="10" stroke-dasharray="8 6" fill="none" fill-rule="evenodd" transform="matrix(1 0 0 -1 210 474.061)"/><path d="M165 505 161 511 157 505Z" stroke="#000000" stroke-width="2" stroke-miterlimit="8" fill-rule="evenodd"/><path d="M83 393 87 386 91 393Z" stroke="#000000" stroke-width="2" stroke-miterlimit="8" fill-rule="evenodd"/><path d="M184 85C184 73.402 207.281 64 236 64 264.719 64 288 73.402 288 85 288 96.598 264.719 106 236 106 207.281 106 184 96.598 184 85Z" stroke="#042433" stroke-width="2" stroke-miterlimit="8" fill="#AEAEAE" fill-rule="evenodd"/><path d="M188 89.5C188 78.1782 211.281 69 240 69 268.719 69 292 78.1782 292 89.5 292 100.822 268.719 110 240 110 211.281 110 188 100.822 188 89.5Z" stroke="#042433" stroke-width="2" stroke-miterlimit="8" fill="#AEAEAE" fill-rule="evenodd"/><path d="M194 94C194 82.402 217.281 73 246 73 274.719 73 298 82.402 298 94 298 105.598 274.719 115 246 115 217.281 115 194 105.598 194 94Z" stroke="#042433" stroke-width="2" stroke-miterlimit="8" fill="#AEAEAE" fill-rule="evenodd"/><path d="M198 99.5C198 88.1782 221.505 79 250.5 79 279.495 79 303 88.1782 303 99.5 303 110.822 279.495 120 250.5 120 221.505 120 198 110.822 198 99.5Z" stroke="#042433" stroke-width="2" stroke-miterlimit="8" fill="#156082" fill-rule="evenodd"/><text fill="#FFFFFF" font-family="Aptos,Aptos_MSFontService,sans-serif" font-weight="400" font-size="13.3333" transform="translate(218.122 102)">Sequ</text><text fill="#FFFFFF" font-family="Aptos,Aptos_MSFontService,sans-serif" font-weight="400" font-size="13.3333" transform="translate(247.622 102)">e</text><text fill="#FFFFFF" font-family="Aptos,Aptos_MSFontService,sans-serif" font-weight="400" font-size="13.3333" transform="translate(254.622 102)">nces</text><rect x="1053" y="60" width="215" height="366" stroke="#FFFFFF" stroke-width="2" stroke-miterlimit="8" fill="#4E95D9"/><rect x="1062" y="105" width="196" height="314" stroke="#FFFFFF" stroke-width="2" stroke-miterlimit="8" fill="#F2AA84"/><rect x="1062" y="68" width="196" height="32" stroke="#FFFFFF" stroke-width="2" stroke-miterlimit="8" fill="#FBE3D6"/><rect x="1066.5" y="114.5" width="81" height="39" stroke="#FFFFFF" stroke-width="0.666667" stroke-miterlimit="8" fill="#7F7F7F"/><rect x="1171.5" y="114.5" width="80" height="38" stroke="#FFFFFF" stroke-width="0.666667" stroke-miterlimit="8" fill="#7F7F7F"/><text font-family="Aptos,Aptos_MSFontService,sans-serif" font-weight="700" font-size="10.6667" transform="translate(1115.11 189)">Scope</text><text font-family="Aptos,Aptos_MSFontService,sans-serif" font-weight="700" font-size="10.6667" transform="translate(1177.56 135)">Name = Value</text><text font-family="Aptos,Aptos_MSFontService,sans-serif" font-weight="400" font-size="13.3333" transform="translate(1091.66 89)">Configuration Database</text><rect x="1066.5" y="157.5" width="80" height="39" stroke="#FFFFFF" stroke-width="0.666667" stroke-miterlimit="8" fill="#7F7F7F"/><rect x="1066.5" y="201.5" width="80" height="39" stroke="#FFFFFF" stroke-width="0.666667" stroke-miterlimit="8" fill="#7F7F7F"/><rect x="1066.5" y="245.5" width="80" height="39" stroke="#FFFFFF" stroke-width="0.666667" stroke-miterlimit="8" fill="#7F7F7F"/><rect x="1066.5" y="288.5" width="80" height="39" stroke="#FFFFFF" stroke-width="0.666667" stroke-miterlimit="8" fill="#7F7F7F"/><rect x="1066.5" y="333.5" width="80" height="39" stroke="#FFFFFF" stroke-width="0.666667" stroke-miterlimit="8" fill="#7F7F7F"/><rect x="1066.5" y="377.5" width="80" height="39" stroke="#FFFFFF" stroke-width="0.666667" stroke-miterlimit="8" fill="#7F7F7F"/><rect x="1171.5" y="157.5" width="80" height="39" stroke="#FFFFFF" stroke-width="0.666667" stroke-miterlimit="8" fill="#7F7F7F"/><rect x="1171.5" y="201.5" width="80" height="39" stroke="#FFFFFF" stroke-width="0.666667" stroke-miterlimit="8" fill="#7F7F7F"/><rect x="1171.5" y="245.5" width="80" height="39" stroke="#FFFFFF" stroke-width="0.666667" stroke-miterlimit="8" fill="#7F7F7F"/><rect x="1171.5" y="288.5" width="80" height="39" stroke="#FFFFFF" stroke-width="0.666667" stroke-miterlimit="8" fill="#7F7F7F"/><rect x="1171.5" y="333.5" width="80" height="39" stroke="#FFFFFF" stroke-width="0.666667" stroke-miterlimit="8" fill="#7F7F7F"/><rect x="1170.5" y="377.5" width="81" height="39" stroke="#FFFFFF" stroke-width="0.666667" stroke-miterlimit="8" fill="#7F7F7F"/><text font-family="Aptos,Aptos_MSFontService,sans-serif" font-weight="700" font-size="10.6667" transform="translate(1091.02 136)">scope</text><text font-family="Aptos,Aptos_MSFontService,sans-serif" font-weight="400" font-size="10.6667" transform="translate(1074.52 179)">uvm_test_top</text><text font-family="Aptos,Aptos_MSFontService,sans-serif" font-weight="400" font-size="10.6667" transform="translate(1074.52 225)">uvm_test_top</text><text font-family="Aptos,Aptos_MSFontService,sans-serif" font-weight="400" font-size="10.6667" transform="translate(1075.16 268)">uvm_test_top</text><text font-family="Aptos,Aptos_MSFontService,sans-serif" font-weight="400" font-size="10.6667" transform="translate(1171.61 180)">wrapper_vif</text><text font-family="Aptos,Aptos_MSFontService,sans-serif" font-weight="400" font-size="10.6667" transform="translate(1227.11 180)">=</text><text font-family="Aptos,Aptos_MSFontService,sans-serif" font-weight="400" font-size="10.6667" transform="translate(1234.94 180)">wif</text><text font-family="Aptos,Aptos_MSFontService,sans-serif" font-weight="400" font-size="10.6667" transform="translate(1180.97 225)">slave_vif</text><text font-family="Aptos,Aptos_MSFontService,sans-serif" font-weight="400" font-size="10.6667" transform="translate(1222.64 225)">=</text><text font-family="Aptos,Aptos_MSFontService,sans-serif" font-weight="400" font-size="10.6667" transform="translate(1230.47 225)">sif</text><text font-family="Aptos,Aptos_MSFontService,sans-serif" font-weight="400" font-size="10.6667" transform="translate(1185.59 266)">ram_vif</text><text font-family="Aptos,Aptos_MSFontService,sans-serif" font-weight="400" font-size="10.6667" transform="translate(1221.43 266)">=</text><text font-family="Aptos,Aptos_MSFontService,sans-serif" font-weight="400" font-size="10.6667" transform="translate(1229.26 266)">rif</text><text font-family="Aptos,Aptos_MSFontService,sans-serif" font-weight="400" font-size="10.6667" transform="translate(1075.34 310)">wrapper_env.*</text><text font-family="Aptos,Aptos_MSFontService,sans-serif" font-weight="400" font-size="10.6667" transform="translate(1081.12 355)">slave_env.*</text><text font-family="Aptos,Aptos_MSFontService,sans-serif" font-weight="400" font-size="10.6667" transform="translate(1083.57 398)">ram_env.*</text><text font-family="Aptos,Aptos_MSFontService,sans-serif" font-weight="400" font-size="10.6667" transform="translate(1175.47 304)">wrapper_CFG</text><text font-family="Aptos,Aptos_MSFontService,sans-serif" font-weight="400" font-size="10.6667" transform="translate(1240.97 304)">=</text><text font-family="Aptos,Aptos_MSFontService,sans-serif" font-weight="400" font-size="10.6667" transform="translate(1175.47 317)">Wrapper_config</text><text font-family="Aptos,Aptos_MSFontService,sans-serif" font-weight="400" font-size="10.6667" transform="translate(1182.19 350)">slave_CFG</text><text font-family="Aptos,Aptos_MSFontService,sans-serif" font-weight="400" font-size="10.6667" transform="translate(1233.86 350)">=</text><text font-family="Aptos,Aptos_MSFontService,sans-serif" font-weight="400" font-size="10.6667" transform="translate(1182.19 363)">Slave_config</text><text font-family="Aptos,Aptos_MSFontService,sans-serif" font-weight="400" font-size="10.6667" transform="translate(1184.85 392)">ram_CFG</text><text font-family="Aptos,Aptos_MSFontService,sans-serif" font-weight="400" font-size="10.6667" transform="translate(1230.69 392)">=</text><text font-family="Aptos,Aptos_MSFontService,sans-serif" font-weight="400" font-size="10.6667" transform="translate(1184.85 405)">Ram_config</text><path d="M855 26C855 22.134 858.134 19 862 19 865.866 19 869 22.134 869 26 869 29.866 865.866 33 862 33 858.134 33 855 29.866 855 26Z" stroke="#FF0000" stroke-width="2" stroke-miterlimit="8" fill="#FF0000" fill-rule="evenodd"/><path d="M818 91.5C818 82.9396 824.716 76 833 76 841.284 76 848 82.9396 848 91.5 848 100.06 841.284 107 833 107 824.716 107 818 100.06 818 91.5Z" stroke="#0070C0" stroke-width="2" stroke-linecap="square" stroke-miterlimit="8" stroke-dasharray="6 2" fill="#FFFFFF" fill-rule="evenodd"/><text font-family="Aptos,Aptos_MSFontService,sans-serif" font-weight="400" font-size="10.6667" transform="translate(825.641 94)">get</text><rect x="682.5" y="124.5" width="305" height="318" stroke="#042433" stroke-width="0.666667" stroke-miterlimit="8" fill="#F2CFEE"/><text font-family="Aptos,Aptos_MSFontService,sans-serif" font-weight="400" font-size="16" transform="translate(701.649 139)">ram_env</text><path d="M858 92 1062.84 177.273" stroke="#0070C0" stroke-width="2" stroke-linejoin="round" stroke-miterlimit="10" stroke-dasharray="8 6" fill="#0070C0" fill-rule="evenodd"/><path d="M857.514 94.7399 852.942 89.4915 859.901 89.3336Z" stroke="#0070C0" stroke-width="2" stroke-miterlimit="8" fill="#0070C0" fill-rule="evenodd"/><path d="M856 99 1062.04 219.945" stroke="#0070C0" stroke-width="2" stroke-linejoin="round" stroke-miterlimit="10" stroke-dasharray="8 6" fill="#0070C0" fill-rule="evenodd"/><path d="M855.252 102.697 851.146 96.3025 858.637 95.0286Z" stroke="#0070C0" stroke-width="2" stroke-miterlimit="8" fill="#0070C0" fill-rule="evenodd"/><path d="M856 104 1058.95 259.549" stroke="#0070C0" stroke-width="2" stroke-linejoin="round" stroke-miterlimit="10" stroke-dasharray="8 6" fill="#0070C0" fill-rule="evenodd"/><path d="M854.677 108.927 851.141 101.474 859.03 99.0652Z" stroke="#0070C0" stroke-width="2" stroke-miterlimit="8" fill="#0070C0" fill-rule="evenodd"/><path d="M1060.74 298.702 850.876 105.993" stroke="#FF0000" stroke-width="2" stroke-linejoin="round" stroke-miterlimit="10" stroke-dasharray="8 6" fill="none" fill-rule="evenodd"/><path d="M1063.07 294.246 1066.25 302.789 1057.15 303.382Z" stroke="#FF0000" stroke-width="2" stroke-miterlimit="8" fill="#FF0000" fill-rule="evenodd"/><path d="M1060.73 337.784 846.606 105.993" stroke="#FF0000" stroke-width="2" stroke-linejoin="round" stroke-miterlimit="10" stroke-dasharray="8 6" fill="none" fill-rule="evenodd"/><path d="M1063.7 332.559 1066.43 342.379 1056.35 343.901Z" stroke="#FF0000" stroke-width="2" stroke-miterlimit="8" fill="#FF0000" fill-rule="evenodd"/><path d="M1057.19 377.057 846.606 108.806" stroke="#FF0000" stroke-width="2" stroke-linejoin="round" stroke-miterlimit="10" stroke-dasharray="8 6" fill="none" fill-rule="evenodd"/><path d="M1060.78 371.141 1062.88 382.062 1052.05 384.609Z" stroke="#FF0000" stroke-width="2" stroke-miterlimit="8" fill="#FF0000" fill-rule="evenodd"/><path d="M1015 273C1015 264.163 1021.94 257 1030.5 257 1039.06 257 1046 264.163 1046 273 1046 281.837 1039.06 289 1030.5 289 1021.94 289 1015 281.837 1015 273Z" stroke="#FF0000" stroke-width="2" stroke-linecap="square" stroke-miterlimit="8" stroke-dasharray="6 2" fill="#FFFFFF" fill-rule="evenodd"/><text font-family="Aptos,Aptos_MSFontService,sans-serif" font-weight="400" font-size="10.6667" transform="translate(1023.25 276)">set</text><path d="M1062.71 171.138 907.653 31.7499" stroke="#FF0000" stroke-width="2" stroke-linejoin="round" stroke-miterlimit="10" stroke-dasharray="8 6" fill="none" fill-rule="evenodd"/><path d="M1064.38 167.904 1066.77 174.122 1060.12 174.482Z" stroke="#FF0000" stroke-width="2" stroke-miterlimit="8" fill="#FF0000" fill-rule="evenodd"/><path d="M1061.74 215.056 867 33.5001" stroke="#FF0000" stroke-width="2" stroke-linejoin="round" stroke-miterlimit="10" stroke-dasharray="8 6" fill="none" fill-rule="evenodd"/><path d="M1063.95 210.868 1066.86 218.881 1058.36 219.502Z" stroke="#FF0000" stroke-width="2" stroke-miterlimit="8" fill="#FF0000" fill-rule="evenodd"/><path d="M1059.84 258.463 828.228 33.8249" stroke="#FF0000" stroke-width="2" stroke-linejoin="round" stroke-miterlimit="10" stroke-dasharray="8 6" fill="none" fill-rule="evenodd"/><path d="M1062.61 253.314 1065.95 263.118 1055.63 264.084Z" stroke="#FF0000" stroke-width="2" stroke-miterlimit="8" fill="#FF0000" fill-rule="evenodd"/><path d="M1015 139C1015 130.163 1021.94 123 1030.5 123 1039.06 123 1046 130.163 1046 139 1046 147.837 1039.06 155 1030.5 155 1021.94 155 1015 147.837 1015 139Z" stroke="#FF0000" stroke-width="2" stroke-linecap="square" stroke-miterlimit="8" stroke-dasharray="6 2" fill="#FFFFFF" fill-rule="evenodd"/><text font-family="Aptos,Aptos_MSFontService,sans-serif" font-weight="400" font-size="10.6667" transform="translate(1023.25 142)">set</text><path d="M1015 184C1015 175.163 1021.94 168 1030.5 168 1039.06 168 1046 175.163 1046 184 1046 192.837 1039.06 200 1030.5 200 1021.94 200 1015 192.837 1015 184Z" stroke="#FF0000" stroke-width="2" stroke-linecap="square" stroke-miterlimit="8" stroke-dasharray="6 2" fill="#FFFFFF" fill-rule="evenodd"/><text font-family="Aptos,Aptos_MSFontService,sans-serif" font-weight="400" font-size="10.6667" transform="translate(1023 187)">set</text><path d="M1015 229C1015 220.163 1021.94 213 1030.5 213 1039.06 213 1046 220.163 1046 229 1046 237.837 1039.06 245 1030.5 245 1021.94 245 1015 237.837 1015 229Z" stroke="#FF0000" stroke-width="2" stroke-linecap="square" stroke-miterlimit="8" stroke-dasharray="6 2" fill="#FFFFFF" fill-rule="evenodd"/><text font-family="Aptos,Aptos_MSFontService,sans-serif" font-weight="400" font-size="10.6667" transform="translate(1023.25 232)">set</text><path d="M815 27C815 23.134 818.134 20 822 20 825.866 20 829 23.134 829 27 829 30.866 825.866 34 822 34 818.134 34 815 30.866 815 27Z" stroke="#FF0000" stroke-width="2" stroke-miterlimit="8" fill="#FF0000" fill-rule="evenodd"/><path d="M896 27C896 23.134 899.134 20 903 20 906.866 20 910 23.134 910 27 910 30.866 906.866 34 903 34 899.134 34 896 30.866 896 27Z" stroke="#FF0000" stroke-width="2" stroke-miterlimit="8" fill="#FF0000" fill-rule="evenodd"/><path d="M329 297 1068.09 305.159" stroke="#0070C0" stroke-width="2" stroke-linejoin="round" stroke-miterlimit="10" stroke-dasharray="8 6" fill="#0070C0" fill-rule="evenodd"/><path d="M329.159 302.407 318.87 296.998 328.959 291.225Z" stroke="#0070C0" stroke-width="2" stroke-miterlimit="8" fill="#0070C0" fill-rule="evenodd"/><path d="M1016 309C1016 300.163 1022.94 293 1031.5 293 1040.06 293 1047 300.163 1047 309 1047 317.837 1040.06 325 1031.5 325 1022.94 325 1016 317.837 1016 309Z" stroke="#FF0000" stroke-width="2" stroke-linecap="square" stroke-miterlimit="8" stroke-dasharray="6 2" fill="#FFFFFF" fill-rule="evenodd"/><text font-family="Aptos,Aptos_MSFontService,sans-serif" font-weight="400" font-size="10.6667" transform="translate(1024.44 312)">set</text><rect x="385.5" y="165.5" width="104" height="55" stroke="#042433" stroke-width="0.666667" stroke-miterlimit="8" fill="#DFE5A9"/><rect x="519.5" y="165.5" width="104" height="55" stroke="#042433" stroke-width="0.666667" stroke-miterlimit="8" fill="#DFE5A9"/><rect x="377.5" y="252.5" width="264" height="175" stroke="#042433" stroke-width="0.666667" stroke-miterlimit="8" fill="#FFFFFF"/><rect x="388.5" y="342.5" width="114" height="72" stroke="#042433" stroke-width="0.666667" stroke-miterlimit="8" fill="#7F7F7F"/><rect x="405.5" y="368.5" width="80" height="36" stroke="#042433" stroke-width="0.666667" stroke-miterlimit="8" fill="#F2AA84"/><path d="M540 220C540 218.343 541.343 217 543 217 544.657 217 546 218.343 546 220 546 221.657 544.657 223 543 223 541.343 223 540 221.657 540 220Z" stroke="#000000" stroke-width="2" stroke-miterlimit="8" fill-rule="evenodd"/><path d="M463 220C463 218.343 464.119 217 465.5 217 466.881 217 468 218.343 468 220 468 221.657 466.881 223 465.5 223 464.119 223 463 221.657 463 220Z" stroke="#000000" stroke-width="2" stroke-miterlimit="8" fill-rule="evenodd"/><path d="M480.5 254.5 480.5 339.033" stroke="#000000" stroke-width="1.33333" stroke-miterlimit="8" fill="none" fill-rule="evenodd"/><path d="M476 252.5 479.5 249 483 252.5 479.5 256Z" stroke="#000000" stroke-width="2" stroke-miterlimit="8" fill-rule="evenodd"/><path d="M466.5 248.5 543.75 248.5" stroke="#000000" stroke-width="1.33333" stroke-miterlimit="8" fill="none" fill-rule="evenodd"/><path d="M466.108 248.238 465.907 230.174 467.241 230.159 467.441 248.223ZM462.589 231.544 466.5 223.5 470.589 231.455Z"/><path d="M542.991 248.604 542.875 230.171 544.209 230.162 544.324 248.595ZM539.55 231.525 543.5 223.5 547.55 231.475Z"/><path d="M476 341.5 479.5 338 483 341.5 479.5 345Z" stroke="#000000" stroke-width="2" stroke-miterlimit="8" fill-rule="evenodd"/><text font-family="Aptos,Aptos_MSFontService,sans-serif" font-weight="400" font-size="13.3333" transform="translate(387.695 194)">uvm_scoreboard</text><text font-family="Aptos,Aptos_MSFontService,sans-serif" font-weight="400" font-size="13.3333" transform="translate(543.676 186)">Coverage</text><text font-family="Aptos,Aptos_MSFontService,sans-serif" font-weight="400" font-size="13.3333" transform="translate(543.676 202)">Collector</text><text font-family="Aptos,Aptos_MSFontService,sans-serif" font-weight="400" font-size="13.3333" transform="translate(387.695 277)">uvm_agent</text><text font-family="Aptos,Aptos_MSFontService,sans-serif" font-weight="400" font-size="13.3333" transform="translate(387.695 293)">(passive)</text><text fill="#FFFFFF" font-family="Aptos,Aptos_MSFontService,sans-serif" font-weight="400" font-size="13.3333" transform="translate(404.54 358)">uvm_monitor</text><text font-family="Aptos,Aptos_MSFontService,sans-serif" font-weight="400" font-size="13.3333" transform="translate(427.402 382)">Virtual</text><text font-family="Aptos,Aptos_MSFontService,sans-serif" font-weight="400" font-size="13.3333" transform="translate(420.482 398)">Interface</text><path d="M409 383.5C409 382.119 410.343 381 412 381 413.657 381 415 382.119 415 383.5 415 384.881 413.657 386 412 386 410.343 386 409 384.881 409 383.5Z" stroke="#000000" stroke-width="2" stroke-miterlimit="8" fill-rule="evenodd"/><path d="M412.194 514.826 412 387" stroke="#000000" stroke-width="2" stroke-linejoin="round" stroke-miterlimit="10" stroke-dasharray="8 6" fill="none" fill-rule="evenodd"/><path d="M408 393 411.5 386 415 393Z" stroke="#000000" stroke-width="2" stroke-miterlimit="8" fill-rule="evenodd"/><path d="M642 343 1065.15 345.345" stroke="#0070C0" stroke-width="2" stroke-linejoin="round" stroke-miterlimit="10" stroke-dasharray="8 6" fill="#0070C0" fill-rule="evenodd"/><rect x="718.5" y="161.5" width="104" height="55" stroke="#042433" stroke-width="0.666667" stroke-miterlimit="8" fill="#DFE5A9"/><text font-family="Aptos,Aptos_MSFontService,sans-serif" font-weight="400" font-size="13.3333" transform="translate(721.979 190)">uvm_scoreboard</text><rect x="702.5" y="247.5" width="264" height="175" stroke="#042433" stroke-width="0.666667" stroke-miterlimit="8" fill="#FFFFFF"/><rect x="714.5" y="337.5" width="113" height="73" stroke="#042433" stroke-width="0.666667" stroke-miterlimit="8" fill="#7F7F7F"/><rect x="730.5" y="365.5" width="80" height="36" stroke="#042433" stroke-width="0.666667" stroke-miterlimit="8" fill="#F2AA84"/><text fill="#FFFFFF" font-family="Aptos,Aptos_MSFontService,sans-serif" font-weight="400" font-size="13.3333" transform="translate(730.159 354)">uvm_monitor</text><text font-family="Aptos,Aptos_MSFontService,sans-serif" font-weight="400" font-size="13.3333" transform="translate(753.798 379)">Virtual</text><text font-family="Aptos,Aptos_MSFontService,sans-serif" font-weight="400" font-size="13.3333" transform="translate(746.878 395)">Interface</text><path d="M735 380C735 378.343 736.343 377 738 377 739.657 377 741 378.343 741 380 741 381.657 739.657 383 738 383 736.343 383 735 381.657 735 380Z" stroke="#000000" stroke-width="2" stroke-miterlimit="8" fill-rule="evenodd"/><path d="M738.194 511.826 738 384" stroke="#000000" stroke-width="2" stroke-linejoin="round" stroke-miterlimit="10" stroke-dasharray="8 6" fill="none" fill-rule="evenodd"/><path d="M735 388 738.5 382 742 388Z" stroke="#000000" stroke-width="2" stroke-miterlimit="8" fill-rule="evenodd"/><text font-family="Aptos,Aptos_MSFontService,sans-serif" font-weight="400" font-size="13.3333" transform="translate(713.695 275)">uvm_agent</text><text font-family="Aptos,Aptos_MSFontService,sans-serif" font-weight="400" font-size="13.3333" transform="translate(713.695 291)">(passive)</text><rect x="853.5" y="161.5" width="104" height="55" stroke="#042433" stroke-width="0.666667" stroke-miterlimit="8" fill="#DFE5A9"/><text font-family="Aptos,Aptos_MSFontService,sans-serif" font-weight="400" font-size="13.3333" transform="translate(876.839 183)">Coverage</text><text font-family="Aptos,Aptos_MSFontService,sans-serif" font-weight="400" font-size="13.3333" transform="translate(876.839 199)">Collector</text><path d="M869 215C869 213.343 870.119 212 871.5 212 872.881 212 874 213.343 874 215 874 216.657 872.881 218 871.5 218 870.119 218 869 216.657 869 215Z" stroke="#000000" stroke-width="2" stroke-miterlimit="8" fill-rule="evenodd"/><path d="M791 215C791 213.343 792.343 212 794 212 795.657 212 797 213.343 797 215 797 216.657 795.657 218 794 218 792.343 218 791 216.657 791 215Z" stroke="#000000" stroke-width="2" stroke-miterlimit="8" fill-rule="evenodd"/><path d="M794.5 243.5 871.75 243.5" stroke="#000000" stroke-width="1.33333" stroke-miterlimit="8" fill="none" fill-rule="evenodd"/><path d="M0.666667-2.71761e-06 0.666744 19.0881-0.666589 19.0881-0.666667 2.71761e-06ZM4.00007 17.7547 0.000104987 25.7547-3.99993 17.7548Z" transform="matrix(1 0 0 -1 794.5 244.255)"/><path d="M808.5 249.5 808.5 334.033" stroke="#000000" stroke-width="1.33333" stroke-miterlimit="8" fill="none" fill-rule="evenodd"/><path d="M804 336.5 807.5 333 811 336.5 807.5 340Z" stroke="#000000" stroke-width="2" stroke-miterlimit="8" fill-rule="evenodd"/><path d="M804 247.5 807.5 244 811 247.5 807.5 251Z" stroke="#000000" stroke-width="2" stroke-miterlimit="8" fill-rule="evenodd"/><path d="M0.666667-2.71761e-06 0.666744 19.0881-0.666589 19.0881-0.666667 2.71761e-06ZM4.00007 17.7547 0.000104987 25.7547-3.99993 17.7548Z" transform="matrix(1 0 0 -1 871.5 244.255)"/><path d="M975 388 1065.81 388" stroke="#0070C0" stroke-width="2" stroke-linejoin="round" stroke-miterlimit="10" stroke-dasharray="8 6" fill="#0070C0" fill-rule="evenodd"/><path d="M1017 348C1017 339.163 1023.94 332 1032.5 332 1041.06 332 1048 339.163 1048 348 1048 356.837 1041.06 364 1032.5 364 1023.94 364 1017 356.837 1017 348Z" stroke="#FF0000" stroke-width="2" stroke-linecap="square" stroke-miterlimit="8" stroke-dasharray="6 2" fill="#FFFFFF" fill-rule="evenodd"/><text font-family="Aptos,Aptos_MSFontService,sans-serif" font-weight="400" font-size="10.6667" transform="translate(1024.88 351)">set</text><path d="M980 394 969 388 980 382Z" stroke="#0070C0" stroke-width="2" stroke-miterlimit="8" fill="#0070C0" fill-rule="evenodd"/><path d="M653 349 642 343 653 337Z" stroke="#0070C0" stroke-width="2" stroke-miterlimit="8" fill="#0070C0" fill-rule="evenodd"/><path d="M335 300C335 291.163 341.716 284 350 284 358.284 284 365 291.163 365 300 365 308.837 358.284 316 350 316 341.716 316 335 308.837 335 300Z" stroke="#0070C0" stroke-width="2" stroke-linecap="square" stroke-miterlimit="8" stroke-dasharray="6 2" fill="#FFFFFF" fill-rule="evenodd"/><text font-family="Aptos,Aptos_MSFontService,sans-serif" font-weight="400" font-size="10.6667" transform="translate(342.669 302)">get</text><path d="M663 343.5C663 334.94 669.94 328 678.5 328 687.06 328 694 334.94 694 343.5 694 352.06 687.06 359 678.5 359 669.94 359 663 352.06 663 343.5Z" stroke="#0070C0" stroke-width="2" stroke-linecap="square" stroke-miterlimit="8" stroke-dasharray="6 2" fill="#FFFFFF" fill-rule="evenodd"/><text font-family="Aptos,Aptos_MSFontService,sans-serif" font-weight="400" font-size="10.6667" transform="translate(670.884 346)">get</text><path d="M987 388C987 379.163 993.94 372 1002.5 372 1011.06 372 1018 379.163 1018 388 1018 396.837 1011.06 404 1002.5 404 993.94 404 987 396.837 987 388Z" stroke="#0070C0" stroke-width="2" stroke-linecap="square" stroke-miterlimit="8" stroke-dasharray="6 2" fill="#FFFFFF" fill-rule="evenodd"/><text font-family="Aptos,Aptos_MSFontService,sans-serif" font-weight="400" font-size="10.6667" transform="translate(995.505 390)">get</text><rect x="549.5" y="513.5" width="114" height="57" stroke="#042433" stroke-width="0.666667" stroke-miterlimit="8" fill="#C1E5F5"/><text font-family="Aptos,Aptos_MSFontService,sans-serif" font-weight="400" font-size="16" transform="translate(571.407 546)">Slave_sva</text><path d="M740 573.98 740 633.161 738 633.161 738 573.98ZM733.47 581.476 739 571.995 744.53 581.476C744.809 581.953 744.648 582.565 744.171 582.844 743.693 583.122 743.081 582.961 742.803 582.484L738.136 574.484 739.864 574.484 735.197 582.484C734.919 582.961 734.307 583.122 733.829 582.844 733.352 582.565 733.191 581.953 733.47 581.476ZM744.531 625.664 739 635.145 733.47 625.664C733.191 625.187 733.352 624.575 733.83 624.297 734.307 624.018 734.919 624.18 735.197 624.657L739.864 632.657 738.136 632.657 742.803 624.657C743.081 624.18 743.694 624.018 744.171 624.297 744.648 624.575 744.809 625.187 744.531 625.664Z"/><rect x="682.5" y="513.5" width="157" height="58" stroke="#042433" stroke-width="0.666667" stroke-miterlimit="8" fill="#F2AA84"/><text font-family="Aptos,Aptos_MSFontService,sans-serif" font-weight="400" font-size="16" transform="translate(707.314 547)">Ram_Interface</text><rect x="874.5" y="513.5" width="114" height="59" stroke="#042433" stroke-width="0.666667" stroke-miterlimit="8" fill="#C1E5F5"/><text font-family="Aptos,Aptos_MSFontService,sans-serif" font-weight="400" font-size="16" transform="translate(899.836 547)">Ram_sva</text><path d="M840.988 541.016 872.174 541.272 872.157 543.272 840.972 543.016ZM848.43 547.608 838.995 542 848.521 536.547C849 536.273 849.612 536.439 849.886 536.919 850.16 537.398 849.994 538.009 849.515 538.283L841.477 542.884 841.491 541.157 849.452 545.889C849.927 546.171 850.083 546.785 849.801 547.259 849.519 547.734 848.905 547.89 848.43 547.608ZM864.715 536.68 874.15 542.288 864.624 547.741C864.145 548.015 863.534 547.849 863.26 547.37 862.985 546.89 863.152 546.279 863.631 546.005L871.669 541.404 871.655 543.132 863.693 538.4C863.219 538.117 863.062 537.504 863.345 537.029 863.627 536.554 864.24 536.398 864.715 536.68Z"/><path d="M515.988 541.016 547.174 541.272 547.157 543.272 515.972 543.016ZM523.43 547.608 513.995 542 523.521 536.547C524 536.273 524.612 536.439 524.886 536.919 525.16 537.398 524.994 538.009 524.515 538.283L516.477 542.884 516.491 541.157 524.452 545.889C524.927 546.171 525.083 546.785 524.801 547.259 524.519 547.734 523.905 547.89 523.43 547.608ZM539.715 536.68 549.15 542.288 539.624 547.741C539.145 548.015 538.534 547.849 538.26 547.37 537.985 546.89 538.152 546.279 538.631 546.005L546.669 541.404 546.655 543.132 538.693 538.4C538.219 538.117 538.062 537.504 538.345 537.029 538.627 536.554 539.24 536.398 539.715 536.68Z"/><path d="M90 571.98 90.0001 609.795 88.0001 609.795 88 571.98ZM83.4696 579.476 89 569.995 94.5305 579.476C94.8088 579.953 94.6476 580.565 94.1706 580.844 93.6935 581.122 93.0812 580.961 92.8029 580.484L88.1362 572.484 89.8638 572.484 85.1971 580.484C84.9189 580.961 84.3065 581.122 83.8295 580.844 83.3524 580.565 83.1913 579.953 83.4696 579.476ZM94.5305 602.299 89.0001 611.78 83.4696 602.299C83.1914 601.822 83.3525 601.21 83.8295 600.932 84.3066 600.653 84.9189 600.815 85.1972 601.292L89.8639 609.292 88.1363 609.292 92.803 601.292C93.0812 600.815 93.6936 600.653 94.1706 600.932 94.6477 601.21 94.8088 601.822 94.5305 602.299Z"/><rect x="32.5001" y="512.5" width="157" height="57" stroke="#042433" stroke-width="0.666667" stroke-miterlimit="8" fill="#F2AA84"/><text font-family="Aptos,Aptos_MSFontService,sans-serif" font-weight="400" font-size="16" transform="translate(44.0135 546)">Wrapper_Interface</text><rect x="224.5" y="511.5" width="114" height="59" stroke="#042433" stroke-width="0.666667" stroke-miterlimit="8" fill="#C1E5F5"/><text font-family="Aptos,Aptos_MSFontService,sans-serif" font-weight="400" font-size="16" transform="translate(237.389 545)">Wrapper_sva</text><path d="M190.988 540.016 222.174 540.272 222.157 542.272 190.972 542.016ZM198.43 546.608 188.995 541 198.521 535.547C199.001 535.273 199.611 535.439 199.886 535.919 200.16 536.398 199.994 537.009 199.515 537.283L191.477 541.884 191.491 540.157 199.452 544.889C199.927 545.171 200.083 545.785 199.801 546.259 199.519 546.734 198.905 546.89 198.43 546.608ZM214.715 535.68 224.15 541.288 214.624 546.741C214.145 547.015 213.534 546.849 213.26 546.37 212.985 545.89 213.152 545.279 213.631 545.005L221.669 540.404 221.655 542.132 213.693 537.4C213.219 537.117 213.062 536.504 213.345 536.029 213.627 535.554 214.24 535.398 214.715 535.68Z"/><path d="M0 0 53.1407 0.000104987" stroke="#000000" stroke-width="2" stroke-linejoin="round" stroke-miterlimit="10" stroke-dasharray="8 6" fill="none" fill-rule="evenodd" transform="matrix(-1 0 0 1 210.141 474)"/><path d="M0 0 0.000104987 38.9845" stroke="#000000" stroke-width="2" stroke-linejoin="round" stroke-miterlimit="10" stroke-dasharray="8 6" fill="none" fill-rule="evenodd" transform="matrix(1 0 0 -1 161 510.984)"/></g></svg>